PathFileType	4	(X/Y/Z)	C:\Users\Basilio\Documents\Thesis Gigler\squatting_fais\c3dfiles\019\SJ_pre1\markers_experimental.trc
DataRate	CameraRate	NumFrames	NumMarkers	Units	OrigDataRate	OrigDataStartFrame	OrigNumFrames
200.000000	200.000000	4	59	mm	200.000000	439	1173
Frame#	Time	FHD			LBHD			RBHD			C7			T10			CLAV			LSHO			LUUPA			LMUPA			LDUPA			LLEP			LMEP			LRAD			LUL			LRFIN			RSHO			RUPA1			RMUPA			RDUPA			RLEP			RMEP			RRAD			RUL			RUFIN			LASI			RASI			USACR			LSACR			RSACR			LTHI1			LTHI2			LTHI3			LTHI4			LLFC			LTIB1			LTIB2			LTIB3			LTIB4			LLMAL			LMMAL			LHEE			LMT1			LMT2			LMT5			RTHI			RTHI2			RTHI3			RTHI4			RLFC			RTIB1			RTIB2			RTIB3			RTIB4			RLMAL			RMMAL			RHEE			RMT1			RMT2			RMT5			
		X1	Y1	Z1	X2	Y2	Z2	X3	Y3	Z3	X4	Y4	Z4	X5	Y5	Z5	X6	Y6	Z6	X7	Y7	Z7	X8	Y8	Z8	X9	Y9	Z9	X10	Y10	Z10	X11	Y11	Z11	X12	Y12	Z12	X13	Y13	Z13	X14	Y14	Z14	X15	Y15	Z15	X16	Y16	Z16	X17	Y17	Z17	X18	Y18	Z18	X19	Y19	Z19	X20	Y20	Z20	X21	Y21	Z21	X22	Y22	Z22	X23	Y23	Z23	X24	Y24	Z24	X25	Y25	Z25	X26	Y26	Z26	X27	Y27	Z27	X28	Y28	Z28	X29	Y29	Z29	X30	Y30	Z30	X31	Y31	Z31	X32	Y32	Z32	X33	Y33	Z33	X34	Y34	Z34	X35	Y35	Z35	X36	Y36	Z36	X37	Y37	Z37	X38	Y38	Z38	X39	Y39	Z39	X40	Y40	Z40	X41	Y41	Z41	X42	Y42	Z42	X43	Y43	Z43	X44	Y44	Z44	X45	Y45	Z45	X46	Y46	Z46	X47	Y47	Z47	X48	Y48	Z48	X49	Y49	Z49	X50	Y50	Z50	X51	Y51	Z51	X52	Y52	Z52	X53	Y53	Z53	X54	Y54	Z54	X55	Y55	Z55	X56	Y56	Z56	X57	Y57	Z57	X58	Y58	Z58	X59	Y59	Z59	

440	2.195	121.577133178711	922.376892089844	-863.3674316406252	-13.51575374603272	932.399353027344	-1005.002502441406	-16.06294441223145	929.992126464844	-864.9283447265627	-101.6219787597657	831.509216308594	-927.948425292969	-358.2329406738282	712.8975219726564	-928.091735839844	-46.67413330078126	692.1704711914064	-927.8041992187502	-52.24308395385744	763.8661499023439	-1081.11328125	-178.5529022216797	717.6670532226564	-1189.215454101563	-214.8612976074219	690.2292480468751	-1170.907104492188	-236.8466033935547	709.1744384765626	-1222.100219726563	-300.8913574218751	727.5659790039064	-1276.188232421875	-339.5805358886719	785.508728027344	-1251.22900390625	-477.419158935547	613.4370117187501	-1127.694946289063	-477.3663330078126	573.9719848632814	-1184.93798828125	-448.0177612304689	580.9666137695314	-1090.038696289063	-45.32535552978516	761.4247436523439	-783.1176757812502	-179.1611785888672	774.4749755859377	-646.6836547851564	-197.1990203857422	726.3544311523439	-643.6688842773439	-234.0745697021485	755.0954589843751	-605.6034545898439	-303.6931152343751	727.9056396484376	-573.0328979492189	-336.3191528320313	786.1875000000002	-596.7360229492189	-482.5357666015626	615.1467285156251	-723.4666748046876	-474.8946533203126	563.2036743164064	-678.7006225585939	-453.6572570800782	583.7532958984376	-771.3469238281252	-418.9589843750001	513.1626586914064	-1028.2255859375	-460.6907653808595	554.5786132812501	-837.3334960937502	-494.404266357422	646.5859985351564	-929.502868652344	-524.5101928710939	629.6903686523439	-954.5216064453127	-523.2939453125001	629.0859985351564	-900.1763916015627	-405.6099853515626	447.6858215332032	-1158.771850585938	-326.8426208496094	474.448455810547	-1179.560791015625	-311.6713562011719	514.5397949218751	-1158.583374023438	-277.9454040527344	439.2007751464845	-1192.969970703125	-196.0857543945313	415.4571838378907	-1196.330932617188	-167.077377319336	281.9164123535157	-1168.165771484375	-244.8113861083985	265.2057800292969	-1209.718017578125	-210.1801452636719	249.7023315429688	-1189.06494140625	-245.2896270751954	182.590072631836	-1147.252075195313	-367.8063964843751	96.50944519042972	-1157.435546875	-333.9500427246094	96.53056335449222	-1076.50146484375	-429.1705322265626	48.48573303222658	-1098.586669921875	-212.9696502685547	55.71765136718751	-1127.845703125	-219.4734039306641	58.76200103759767	-1167.272827148438	-270.3678283691407	36.12871170043946	-1211.06396484375	-462.5799255371095	488.5600585937501	-711.0169067382814	-404.8791503906251	509.156219482422	-711.2377319335939	-397.0392456054689	533.3060302734376	-739.4422607421876	-336.4322204589844	481.0032653808595	-676.6744995117189	-197.0326080322266	420.5082397460939	-657.5958251953126	-185.2649688720703	247.9232940673829	-704.1432495117189	-280.7576293945313	207.0019073486329	-664.2618408203126	-243.7587585449219	187.1849822998047	-690.7730102539064	-258.5766906738282	147.2519836425782	-731.5822143554689	-359.8825378417969	98.41033935546878	-700.6381835937501	-323.0177307128907	93.00242614746095	-773.5872192382815	-410.3941650390626	45.4977149963379	-761.9009399414064	-206.6113739013672	52.72071838378908	-712.7427978515626	-218.6631164550782	60.96008682250978	-668.5789794921876	-272.3118896484376	42.32175445556641	-630.1452636718751	
441	2.2	121.4465713500977	922.5131835937502	-863.4395141601565	-13.12296485900879	932.2976684570315	-1004.994995117188	-16.04455757141114	930.0609130859377	-864.9597778320315	-101.9399795532227	831.576599121094	-928.0970458984377	-358.3206787109376	712.8968505859376	-928.1339111328127	-46.77055740356446	692.1951293945314	-927.8773193359377	-52.44833374023439	763.7958374023439	-1081.099487304688	-178.5509643554688	717.5998535156251	-1189.25390625	-214.8116607666016	690.1546020507814	-1170.973510742188	-236.8834533691407	709.1163330078126	-1222.144287109375	-300.8866882324219	727.5172119140626	-1276.252319335938	-339.5764770507813	785.411315917969	-1251.359375	-477.4255676269532	613.4155883789064	-1127.70947265625	-477.3319396972657	573.8897094726564	-1185.036499023438	-447.9463500976564	580.8726196289064	-1090.166381835938	-45.38166427612305	761.4110107421876	-783.3499755859377	-179.2279205322266	774.655456542969	-646.7453002929689	-197.2041778564454	726.4769897460939	-643.6700439453126	-234.1712493896485	755.0301513671876	-605.7522583007814	-303.8146057128907	727.9937133789064	-573.2144775390626	-336.4174804687501	786.2324218750002	-596.8261718750001	-482.5877990722657	615.1455688476564	-723.5073242187501	-474.8980102539064	563.2019653320314	-678.7590332031251	-453.4333496093751	583.6068725585939	-771.457946777344	-419.4157104492189	513.0104980468751	-1028.605590820313	-460.258270263672	554.0303955078126	-837.4968261718752	-494.4056396484376	646.5133056640626	-929.5450439453127	-524.5693969726564	629.7191772460939	-954.5141601562502	-523.2192382812501	629.0479125976564	-900.185485839844	-405.5586853027345	447.6590576171876	-1158.753051757813	-326.7636718750001	474.4202880859376	-1179.518920898438	-311.6682739257813	514.5466308593751	-1158.592529296875	-277.9191284179688	439.212371826172	-1192.99462890625	-196.0610504150391	415.4685974121095	-1196.285278320313	-167.0704345703125	281.7927856445313	-1168.202026367188	-244.7360229492188	265.2008972167969	-1209.728637695313	-210.2056579589844	249.6750793457032	-1189.050170898438	-245.2742767333985	182.5343627929688	-1147.236083984375	-367.8724975585938	96.56198883056643	-1157.45068359375	-333.9786376953126	96.5559997558594	-1076.469604492188	-429.0751037597657	48.42257308959962	-1098.524047851563	-212.9421691894532	55.66764068603517	-1127.863037109375	-219.4256134033204	58.82249069213869	-1167.306396484375	-270.3811950683594	36.09226226806641	-1211.076049804688	-462.5735168457032	488.5520629882814	-711.0109252929689	-404.8904418945314	509.1185913085939	-711.2775878906251	-397.0258178710939	533.2457275390626	-739.5638427734376	-336.4266052246094	480.9933166503907	-676.6600341796876	-197.0267791748047	420.5463867187501	-657.6109619140626	-185.3037567138672	247.9271850585938	-704.3027343750001	-280.2358093261719	206.9279937744141	-664.1078491210939	-243.5092773437501	186.0361785888672	-690.6192016601564	-258.5792236328126	147.1632843017578	-731.5074462890626	-359.8885498046876	98.39931488037112	-700.6347045898439	-322.9632568359376	92.98350524902345	-773.6042480468752	-410.4030151367189	45.50016403198243	-761.8973999023439	-206.6303253173829	52.7427444458008	-712.7406616210939	-218.6165618896485	60.9498863220215	-668.5914916992189	-272.3366394042969	42.3417091369629	-630.1541137695314	
442	2.205	121.4534912109375	922.5010986328127	-863.503356933594	-13.40012264251709	932.4431762695315	-1004.967590332031	-16.1367416381836	930.1711425781252	-864.9826660156252	-101.9278106689453	831.5857543945315	-928.171325683594	-358.1862792968751	712.8497314453126	-928.1711425781252	-46.80931854248048	692.2505493164064	-927.890075683594	-52.43799209594728	763.9916992187501	-1081.17236328125	-178.6480560302735	717.5858764648439	-1189.342407226563	-214.9028015136719	690.1284790039064	-1171.035766601563	-236.8276824951172	709.0534667968751	-1222.23046875	-300.8847961425782	727.3524780273439	-1276.32568359375	-339.5225524902344	785.225769042969	-1251.46826171875	-477.4103088378907	613.3007812500001	-1127.835327148438	-477.3533630371095	573.7514648437501	-1185.1005859375	-447.9420776367189	580.8623046875001	-1090.241455078125	-45.39776992797852	761.4329223632814	-783.4916992187502	-179.3311309814453	774.7296142578127	-646.7998657226564	-197.2589111328126	726.4550170898439	-643.7942504882814	-234.3065338134766	755.0886230468751	-605.8023681640626	-303.8222961425782	728.0573730468751	-573.2696533203126	-336.4674072265626	786.2368164062502	-596.8721313476564	-482.6627502441407	615.1286621093751	-723.5805664062501	-474.9008178710939	563.2083740234376	-678.7636108398439	-453.5551147460939	583.6412963867189	-771.380798339844	-419.5223083496095	512.9700317382814	-1028.709594726563	-459.9055480957032	553.7028808593751	-837.5015869140627	-494.4733276367189	646.5184326171876	-929.5689086914065	-524.6723022460939	629.7088012695314	-954.583679199219	-523.2671508789064	629.0366210937501	-900.1938476562502	-405.5329589843751	447.6055297851564	-1158.783203125	-326.6575317382813	474.3849487304689	-1179.5068359375	-311.6122741699219	514.4974975585939	-1158.592895507813	-277.8931274414063	439.1468505859376	-1192.970703125	-196.0902862548829	415.4808349609376	-1196.259155273438	-166.9413146972657	281.7130737304688	-1168.030883789063	-244.676254272461	265.2202453613282	-1209.737915039063	-210.2087554931641	249.7078552246094	-1188.999267578125	-245.2849273681641	182.5542297363282	-1147.235717773438	-367.8373718261719	96.53030395507815	-1157.424682617188	-333.9216613769532	96.5085144042969	-1076.467529296875	-429.179656982422	48.50460052490236	-1098.596313476563	-212.9160461425782	55.70149230957033	-1127.850708007813	-219.4697265625001	58.75899124145509	-1167.224487304688	-270.4163513183594	36.13354492187501	-1211.01513671875	-462.4730529785157	488.5144042968751	-711.0673828125001	-404.9126281738282	509.0462341308595	-711.3547973632814	-397.010223388672	533.2338256835939	-739.5637207031251	-336.4415893554688	481.0024719238282	-676.7501831054689	-197.043685913086	420.4703369140626	-657.6641235351564	-185.3990173339844	248.0862884521485	-704.3650512695314	-280.2950744628907	206.9416198730469	-664.1433715820314	-243.4161682128907	185.9276123046875	-690.6152954101564	-258.7880859375001	147.4106597900391	-731.1882324218751	-359.8356323242188	98.39275360107425	-700.6491699218751	-322.9480285644532	92.9784622192383	-773.6040649414065	-410.5078430175782	45.55121612548829	-761.8521118164064	-206.6176300048829	52.72042846679689	-712.7478027343751	-218.6562652587891	60.95338439941408	-668.5939941406251	-272.3820800781251	42.37327575683594	-630.1610107421876	
443	2.21	121.4073715209961	922.5144653320315	-863.6079101562502	-13.54032897949219	932.4860839843752	-1005.035461425781	-16.16930198669434	930.1788330078127	-865.0814208984377	-101.9641571044922	831.6154785156252	-928.1086425781252	-358.3495788574219	712.8707275390626	-928.224792480469	-46.77166748046876	692.2218627929689	-927.9401855468752	-52.78478240966798	763.7022094726564	-1081.03857421875	-178.6125946044922	717.5703735351564	-1189.3798828125	-214.8917694091797	690.0847778320314	-1171.062744140625	-236.8692321777344	708.9723510742189	-1222.270874023438	-300.8994750976563	727.2758178710939	-1276.371459960938	-339.5255126953126	785.1636352539065	-1251.562744140625	-477.374725341797	613.2677612304689	-1127.895141601563	-477.2983398437501	573.6600952148439	-1185.180908203125	-448.105926513672	580.8065795898439	-1090.231323242188	-45.56074142456055	761.4679565429689	-783.5743408203127	-179.3463439941407	774.8751220703127	-646.8839111328126	-197.3864746093751	726.5783691406251	-643.8508911132814	-234.2906951904297	755.1671142578126	-605.8443603515626	-303.8995056152344	728.0662841796876	-573.3251953125001	-336.4986572265626	786.2749633789065	-596.9328613281251	-482.6551208496095	615.0720825195314	-723.5772705078126	-474.9645385742189	563.1517333984376	-678.8367309570314	-453.5592651367189	583.6573486328126	-771.3897705078127	-419.3970947265626	512.8027954101564	-1028.531494140625	-459.6360778808595	553.4813842773439	-837.3395996093752	-494.5159912109376	646.4987182617189	-929.6638793945315	-524.6742553710939	629.6422119140626	-954.6286621093752	-523.3647460937501	629.0040893554689	-900.230651855469	-405.5161743164064	447.5765075683595	-1158.802978515625	-326.6461181640626	474.3365478515626	-1179.508911132813	-311.5869140625001	514.4594116210939	-1158.545654296875	-277.7734985351563	439.1489868164064	-1192.919921875	-196.0125274658204	415.4447326660157	-1196.196411132813	-167.1470642089844	281.7615966796876	-1168.078369140625	-244.6295013427735	265.1628112792969	-1209.661743164063	-210.1349487304688	249.6545562744141	-1188.967529296875	-245.2755737304688	182.5390777587891	-1147.2373046875	-367.7451477050782	96.5444259643555	-1157.4326171875	-333.9415588378907	96.53678894042972	-1076.464721679688	-429.1590270996095	48.50173187255861	-1098.591796875	-212.8868408203126	55.6976661682129	-1127.8544921875	-219.4480895996094	58.78711700439455	-1167.241577148438	-270.4307250976563	36.14705276489259	-1211.017944335938	-462.5818481445314	488.4591674804689	-711.1224975585939	-404.9043884277345	509.0425415039064	-711.3280029296876	-397.0244750976564	533.1727905273439	-739.5879516601564	-336.4407653808594	481.0001525878907	-676.7575683593751	-197.0177307128907	420.4817199707032	-657.7052001953126	-185.389633178711	247.9868164062501	-704.3751220703126	-280.7591552734376	207.0268096923829	-664.3643798828126	-243.3593292236329	186.5603332519532	-691.1021728515626	-258.6890563964844	147.2252044677735	-731.4885864257814	-359.8205566406251	98.39100646972659	-700.6520385742189	-322.9000244140626	92.94708251953126	-773.5903320312502	-410.3872680664064	45.48078536987305	-761.9049682617189	-206.6177368164063	52.71790695190431	-712.7449340820314	-218.6096649169922	60.94944000244142	-668.6456909179689	-272.3644714355469	42.35338973999024	-630.1803588867189	
